<svg width="12" height="12" viewBox="0 0 12 12" fill="none" xmlns="http://www.w3.org/2000/svg">
<path fill-rule="evenodd" clip-rule="evenodd" d="M6 0.75C4.55025 0.75 3.375 1.92525 3.375 3.375V4.875C2.54657 4.875 1.875 5.54657 1.875 6.375V9.75C1.875 10.5784 2.54657 11.25 3.375 11.25H8.625C9.45343 11.25 10.125 10.5784 10.125 9.75V6.375C10.125 5.54657 9.45343 4.875 8.625 4.875V3.375C8.625 1.92525 7.44975 0.75 6 0.75ZM7.875 4.875V3.375C7.875 2.33947 7.03553 1.5 6 1.5C4.96447 1.5 4.125 2.33947 4.125 3.375V4.875H7.875Z" fill="#52525B"/>
</svg>
