<svg width="28" height="28" viewBox="0 0 28 28" fill="none" xmlns="http://www.w3.org/2000/svg">
<path d="M22.75 14C22.75 12.5628 22.6959 11.1382 22.5895 9.72813C22.4149 7.41329 20.5867 5.58511 18.2719 5.4105C16.8618 5.30414 15.4372 5.25 14 5.25C12.5628 5.25 11.1382 5.30414 9.72814 5.4105C7.41329 5.58511 5.58511 7.41329 5.4105 9.72813C5.39113 9.98494 5.37349 10.2422 5.35759 10.5M22.75 14L26.25 10.5M22.75 14L19.25 10.5M5.25 14C5.25 15.4372 5.30414 16.8618 5.4105 18.2719C5.58511 20.5867 7.41329 22.4149 9.72814 22.5895C11.1382 22.6959 12.5628 22.75 14 22.75C15.4372 22.75 16.8618 22.6959 18.2719 22.5895C20.5867 22.4149 22.4149 20.5867 22.5895 18.2719C22.6089 18.0151 22.6265 17.7578 22.6424 17.5M5.25 14L8.75 17.5M5.25 14L1.75 17.5" stroke="black" stroke-width="1.5" stroke-linecap="round" stroke-linejoin="round"/>
</svg>
