<svg width="28" height="28" viewBox="0 0 28 28" fill="none" xmlns="http://www.w3.org/2000/svg">
<path d="M11.1928 4.59673C11.2983 3.96385 11.8459 3.5 12.4875 3.5H15.5137C16.1554 3.5 16.7029 3.96385 16.8084 4.59673L17.0575 6.09128C17.1302 6.52767 17.4218 6.89116 17.8089 7.10542C17.8954 7.15332 17.981 7.20281 18.0655 7.25383C18.4447 7.48281 18.9059 7.55401 19.3207 7.3986L20.7404 6.86674C21.3412 6.64165 22.0167 6.88393 22.3375 7.43957L23.8507 10.0604C24.1715 10.6161 24.0436 11.3222 23.5482 11.73L22.3765 12.6946C22.0352 12.9755 21.866 13.4093 21.8742 13.8513C21.8751 13.9007 21.8756 13.9503 21.8756 14C21.8756 14.0497 21.8751 14.0992 21.8742 14.1487C21.866 14.5906 22.0352 15.0245 22.3765 15.3054L23.5482 16.27C24.0436 16.6778 24.1715 17.3839 23.8507 17.9396L22.3375 20.5604C22.0167 21.1161 21.3412 21.3583 20.7404 21.1332L19.3208 20.6014C18.9059 20.446 18.4447 20.5172 18.0655 20.7462C17.981 20.7972 17.8955 20.8467 17.8089 20.8946C17.4218 21.1088 17.1302 21.4723 17.0575 21.9087L16.8084 23.4033C16.7029 24.0361 16.1553 24.5 15.5137 24.5H12.4875C11.8459 24.5 11.2983 24.0361 11.1928 23.4033L10.9437 21.9087C10.871 21.4723 10.5794 21.1088 10.1923 20.8946C10.1058 20.8467 10.0202 20.7972 9.93571 20.7462C9.55651 20.5172 9.09529 20.446 8.68046 20.6014L7.26078 21.1333C6.65996 21.3583 5.98447 21.1161 5.66367 20.5604L4.15052 17.9396C3.82972 17.3839 3.95765 16.6778 4.453 16.27L5.62474 15.3054C5.966 15.0245 6.13516 14.5907 6.12698 14.1487C6.12606 14.0993 6.1256 14.0497 6.1256 14C6.1256 13.9503 6.12606 13.9008 6.12698 13.8513C6.13516 13.4094 5.966 12.9755 5.62474 12.6946L4.453 11.73C3.95765 11.3222 3.82972 10.6161 4.15052 10.0604L5.66367 7.43959C5.98447 6.88394 6.65996 6.64167 7.26078 6.86676L8.68045 7.39861C9.09527 7.55402 9.55649 7.48282 9.9357 7.25384C10.0202 7.20281 10.1058 7.15332 10.1923 7.10542C10.5794 6.89116 10.871 6.52767 10.9437 6.09128L11.1928 4.59673Z" stroke="black" stroke-width="1.5" stroke-linecap="round" stroke-linejoin="round"/>
<path d="M17.5003 13.9999C17.5003 15.9329 15.9333 17.4999 14.0003 17.4999C12.0673 17.4999 10.5003 15.9329 10.5003 13.9999C10.5003 12.0669 12.0673 10.4999 14.0003 10.4999C15.9333 10.4999 17.5003 12.0669 17.5003 13.9999Z" stroke="black" stroke-width="1.5" stroke-linecap="round" stroke-linejoin="round"/>
</svg>
