<svg width="28" height="28" viewBox="0 0 28 28" fill="none" xmlns="http://www.w3.org/2000/svg">
<path d="M8.42008 12.725C7.97178 11.9197 7.112 11.375 6.125 11.375C4.67525 11.375 3.5 12.5503 3.5 14C3.5 15.4497 4.67525 16.625 6.125 16.625C7.112 16.625 7.97178 16.0803 8.42008 15.275M8.42008 12.725C8.63026 13.1025 8.75 13.5373 8.75 14C8.75 14.4627 8.63026 14.8975 8.42008 15.275M8.42008 12.725L19.5799 6.52504M8.42008 15.275L19.5799 21.475M19.5799 21.475C19.3697 21.8525 19.25 22.2873 19.25 22.75C19.25 24.1997 20.4253 25.375 21.875 25.375C23.3247 25.375 24.5 24.1997 24.5 22.75C24.5 21.3003 23.3247 20.125 21.875 20.125C20.888 20.125 20.0282 20.6697 19.5799 21.475ZM19.5799 6.52504C20.0282 7.33027 20.888 7.875 21.875 7.875C23.3247 7.875 24.5 6.69975 24.5 5.25C24.5 3.80025 23.3247 2.625 21.875 2.625C20.4253 2.625 19.25 3.80025 19.25 5.25C19.25 5.71275 19.3697 6.14752 19.5799 6.52504Z" stroke="black" stroke-width="1.5" stroke-linecap="round" stroke-linejoin="round"/>
</svg>
