<svg width="22" height="22" viewBox="0 0 22 22" fill="none" xmlns="http://www.w3.org/2000/svg">
<g filter="url(#filter0_d_1703_178)">
<path d="M2.25 7.47222C2.25 5.29424 2.25 4.20525 2.67386 3.37337C3.0467 2.64163 3.64163 2.0467 4.37337 1.67386C5.20525 1.25 6.29424 1.25 8.47222 1.25H13.5278C15.7058 1.25 16.7948 1.25 17.6266 1.67386C18.3584 2.0467 18.9533 2.64163 19.3261 3.37337C19.75 4.20525 19.75 5.29424 19.75 7.47222V12.5278C19.75 14.7058 19.75 15.7948 19.3261 16.6266C18.9533 17.3584 18.3584 17.9533 17.6266 18.3261C16.7948 18.75 15.7058 18.75 13.5278 18.75H8.47222C6.29424 18.75 5.20525 18.75 4.37337 18.3261C3.64163 17.9533 3.0467 17.3584 2.67386 16.6266C2.25 15.7948 2.25 14.7058 2.25 12.5278V7.47222Z" fill="white"/>
<path d="M14.7823 5.3269L11.0404 8.24717L7.21289 5.3269V5.32769L7.21751 5.33164V9.4208L10.9972 12.4042L14.7823 9.53603V5.3269Z" fill="#EA4335"/>
<path d="M15.7649 4.61649L14.7822 5.32683V9.53595L17.8744 7.16185V5.73172C17.8744 5.73172 17.4991 3.68911 15.7649 4.61649Z" fill="#FBBC05"/>
<path d="M14.7822 9.53608V14.9954H17.1523C17.1523 14.9954 17.8266 14.9259 17.8752 14.1572V7.16199L14.7822 9.53608Z" fill="#34A853"/>
<path d="M7.21769 15V9.42069L7.21289 9.41675L7.21769 15Z" fill="#C5221F"/>
<path d="M7.21258 5.32771L6.23529 4.62132C4.50112 3.69394 4.125 5.73576 4.125 5.73576V7.1659L7.21258 9.41687V5.32771Z" fill="#C5221F"/>
<path d="M7.21289 5.32764V9.41679L7.21769 9.42074V5.33158L7.21289 5.32764Z" fill="#C5221F"/>
<path d="M4.125 7.16663V14.1618C4.17279 14.9314 4.84795 15 4.84795 15H7.21798L7.21258 9.41681L4.125 7.16663Z" fill="#4285F4"/>
</g>
<defs>
<filter id="filter0_d_1703_178" x="-1" y="-1" width="24" height="24" filterUnits="userSpaceOnUse" color-interpolation-filters="sRGB">
<feFlood flood-opacity="0" result="BackgroundImageFix"/>
<feColorMatrix in="SourceAlpha" type="matrix" values="0 0 0 0 0 0 0 0 0 0 0 0 0 0 0 0 0 0 127 0" result="hardAlpha"/>
<feOffset dy="1"/>
<feGaussianBlur stdDeviation="1"/>
<feColorMatrix type="matrix" values="0 0 0 0 0.0627451 0 0 0 0 0.0941176 0 0 0 0 0.156863 0 0 0 0.05 0"/>
<feBlend mode="normal" in2="BackgroundImageFix" result="effect1_dropShadow_1703_178"/>
<feBlend mode="normal" in="SourceGraphic" in2="effect1_dropShadow_1703_178" result="shape"/>
</filter>
</defs>
</svg>
