<svg width="32" height="32" viewBox="0 0 32 32" fill="none" xmlns="http://www.w3.org/2000/svg">
<rect width="32" height="32" rx="12" fill="#BEF264"/>
<path d="M26.0358 21.0004C25.6982 21.3466 25.2968 21.6211 24.8545 21.808C24.4123 21.9949 23.9381 22.0905 23.4594 22.0892C22.9806 22.0905 22.5064 21.9949 22.064 21.808C21.6217 21.6211 21.2201 21.3466 20.8825 21.0004L12.118 12.063C11.8817 11.8212 11.5994 11.6312 11.2886 11.5045C10.9778 11.3778 10.6448 11.3171 10.3102 11.3262L10.6257 11.0044C11.2972 10.3202 12.2039 9.93019 13.153 9.91733C14.1021 9.90447 15.0187 10.2698 15.7077 10.9356L23.6809 19.0597C24.4021 19.7958 25.2104 20.059 25.9007 20.059C26.2017 20.061 26.5007 20.0092 26.7841 19.9058C26.6026 20.3148 26.3499 20.6867 26.0383 21.0036L26.0358 21.0004ZM16.0068 22.0892C15.5282 22.0904 15.0541 21.9948 14.612 21.8079C14.1699 21.621 13.7685 21.3465 13.4311 21.0004L8.84821 16.3268C7.90173 15.3615 6.92937 15.3145 6.25295 15.4619L9.01669 12.6434C9.94109 12.045 10.8926 12.0591 11.5059 12.6852L19.0646 20.3949C18.7337 20.9148 18.2806 21.3421 17.7466 21.638C17.2126 21.9339 16.6145 22.089 16.0068 22.0892ZM8.5548 22.0892C7.98034 22.0893 7.414 21.9509 6.90202 21.6851C6.39004 21.4194 5.94695 21.034 5.60891 20.5603C5.27087 20.0866 5.04748 19.5381 4.95698 18.9596C4.86647 18.3811 4.91142 17.7889 5.08814 17.2315C5.16702 17.0565 5.64972 16.5237 6.37473 16.3409C7.04737 16.173 7.67394 16.3782 8.23678 16.9522L11.6687 20.4528L11.1318 21.0004C10.7941 21.3466 10.3925 21.6211 9.95021 21.808C9.50788 21.9949 9.03359 22.0905 8.5548 22.0892ZM21.3866 11.0031L26.0358 15.7476C26.7161 16.438 27.0998 17.3756 27.1028 18.3544C27.1028 18.6478 26.8851 18.9117 26.5286 19.0622C25.996 19.2842 25.0899 19.2553 24.2923 18.4406L16.6491 10.6409C17.3507 10.1132 18.2145 9.85956 19.0838 9.92604C19.953 9.99251 20.7701 10.3747 21.3866 11.0031ZM26.6478 15.1215L21.9987 10.3802C21.216 9.58146 20.1724 9.10431 19.0669 9.03975C17.9614 8.97519 16.8713 9.32774 16.0043 10.0302C15.1373 9.32774 14.0471 8.97519 12.9416 9.03975C11.8361 9.10431 10.7926 9.58146 10.0099 10.3802L5.36073 15.1215C4.86441 15.6269 4.49137 16.244 4.27164 16.9233C4.26281 16.9458 4.25524 16.9677 4.24829 16.9876C3.94514 17.9692 3.97366 19.0261 4.32927 19.9891C4.68488 20.9522 5.34702 21.7658 6.20973 22.2996C7.07243 22.8334 8.0858 23.0567 9.08766 22.9336C10.0895 22.8105 11.0219 22.3483 11.7356 21.6208L12.2732 21.0731L12.8102 21.6208C13.656 22.4832 14.8031 22.9677 15.9992 22.9677C17.1953 22.9677 18.3424 22.4832 19.1883 21.6208C19.3681 21.4371 19.5325 21.2385 19.6798 21.0268L20.2628 21.6208C20.6806 22.0491 21.1775 22.3886 21.7248 22.6198C22.272 22.851 22.8588 22.9692 23.4512 22.9676C24.343 22.9674 25.2148 22.6976 25.9562 22.1922C26.6977 21.6869 27.2755 20.9687 27.6168 20.1284C27.9581 19.2881 28.0474 18.3636 27.8734 17.4716C27.6995 16.5796 27.2701 15.7602 26.6396 15.117L26.6478 15.1215Z" fill="#111826"/>
</svg>
