<svg width="38" height="32" viewBox="0 0 38 32" fill="none" xmlns="http://www.w3.org/2000/svg">
<rect width="38" height="32" rx="12" fill="#FFEDD5"/>
<path d="M29.0358 21.0005C28.6982 21.3467 28.2968 21.6212 27.8545 21.808C27.4123 21.9949 26.9381 22.0905 26.4594 22.0893C25.9806 22.0905 25.5064 21.995 25.064 21.8081C24.6217 21.6212 24.2201 21.3467 23.8825 21.0005L15.118 12.063C14.8817 11.8213 14.5994 11.6313 14.2886 11.5046C13.9778 11.3779 13.6448 11.3172 13.3102 11.3262L13.6257 11.0045C14.2972 10.3203 15.2039 9.93025 16.153 9.91739C17.1021 9.90453 18.0187 10.2699 18.7077 10.9356L26.6809 19.0597C27.4021 19.7959 28.2104 20.0591 28.9007 20.0591C29.2017 20.0611 29.5007 20.0092 29.7841 19.9059C29.6026 20.3148 29.3499 20.6868 29.0383 21.0037L29.0358 21.0005ZM19.0068 22.0893C18.5282 22.0904 18.0541 21.9948 17.612 21.8079C17.1699 21.621 16.7685 21.3466 16.4311 21.0005L11.8482 16.3268C10.9017 15.3616 9.92937 15.3146 9.25295 15.462L12.0167 12.6435C12.9411 12.045 13.8926 12.0592 14.5059 12.6853L22.0646 20.395C21.7337 20.9148 21.2806 21.3421 20.7466 21.638C20.2126 21.9339 19.6145 22.089 19.0068 22.0893ZM11.5548 22.0893C10.9803 22.0894 10.414 21.9509 9.90202 21.6852C9.39004 21.4195 8.94695 21.0341 8.60891 20.5604C8.27087 20.0867 8.04748 19.5382 7.95698 18.9597C7.86647 18.3811 7.91142 17.789 8.08814 17.2316C8.16702 17.0565 8.64972 16.5237 9.37473 16.341C10.0474 16.173 10.6739 16.3783 11.2368 16.9523L14.6687 20.4529L14.1318 21.0005C13.7941 21.3467 13.3925 21.6212 12.9502 21.8081C12.5079 21.995 12.0336 22.0905 11.5548 22.0893ZM24.3866 11.0032L29.0358 15.7477C29.7161 16.4381 30.0998 17.3757 30.1028 18.3545C30.1028 18.6479 29.8851 18.9117 29.5286 19.0623C28.996 19.2843 28.0899 19.2553 27.2923 18.4407L19.6491 10.6409C20.3507 10.1132 21.2145 9.85962 22.0838 9.9261C22.953 9.99257 23.7701 10.3747 24.3866 11.0032ZM29.6478 15.1216L24.9987 10.3803C24.216 9.58152 23.1724 9.10437 22.0669 9.03981C20.9614 8.97525 19.8713 9.3278 19.0043 10.0303C18.1373 9.3278 17.0471 8.97525 15.9416 9.03981C14.8361 9.10437 13.7926 9.58152 13.0099 10.3803L8.36073 15.1216C7.86441 15.6269 7.49137 16.2441 7.27164 16.9233C7.26281 16.9459 7.25524 16.9677 7.24829 16.9877C6.94514 17.9692 6.97366 19.0261 7.32927 19.9892C7.68488 20.9523 8.34702 21.7658 9.20973 22.2997C10.0724 22.8335 11.0858 23.0567 12.0877 22.9337C13.0895 22.8106 14.0219 22.3483 14.7356 21.6208L15.2732 21.0732L15.8102 21.6208C16.656 22.4833 17.8031 22.9678 18.9992 22.9678C20.1953 22.9678 21.3424 22.4833 22.1883 21.6208C22.3681 21.4372 22.5325 21.2385 22.6798 21.0269L23.2628 21.6208C23.6806 22.0491 24.1775 22.3887 24.7248 22.6199C25.272 22.8511 25.8588 22.9693 26.4512 22.9676C27.343 22.9675 28.2148 22.6976 28.9562 22.1923C29.6977 21.6869 30.2755 20.9687 30.6168 20.1285C30.9581 19.2882 31.0474 18.3636 30.8734 17.4716C30.6995 16.5796 30.2701 15.7602 29.6396 15.1171L29.6478 15.1216Z" fill="#111826"/>
</svg>
