<svg width="26" height="16" viewBox="0 0 26 16" fill="none" xmlns="http://www.w3.org/2000/svg">
<path d="M23.0358 13.0005C22.6982 13.3467 22.2968 13.6212 21.8545 13.808C21.4123 13.9949 20.9381 14.0905 20.4594 14.0893C19.9806 14.0905 19.5064 13.995 19.064 13.8081C18.6217 13.6212 18.2201 13.3467 17.8825 13.0005L9.11801 4.06304C8.88166 3.8213 8.59943 3.63127 8.28859 3.50458C7.97776 3.37789 7.64484 3.31721 7.31022 3.32624L7.62571 3.0045C8.29715 2.32028 9.20389 1.93025 10.153 1.91739C11.1021 1.90453 12.0187 2.26986 12.7077 2.93564L20.6809 11.0597C21.4021 11.7959 22.2104 12.0591 22.9007 12.0591C23.2017 12.0611 23.5007 12.0092 23.7841 11.9059C23.6026 12.3148 23.3499 12.6868 23.0383 13.0037L23.0358 13.0005ZM13.0068 14.0893C12.5282 14.0904 12.0541 13.9948 11.612 13.8079C11.1699 13.621 10.7685 13.3466 10.4311 13.0005L5.84821 8.32681C4.90173 7.36158 3.92937 7.3146 3.25295 7.46196L6.01669 4.64347C6.94109 4.04502 7.89262 4.05918 8.50594 4.6853L16.0646 12.395C15.7337 12.9148 15.2806 13.3421 14.7466 13.638C14.2126 13.9339 13.6145 14.089 13.0068 14.0893ZM5.5548 14.0893C4.98034 14.0894 4.414 13.9509 3.90202 13.6852C3.39004 13.4195 2.94695 13.0341 2.60891 12.5604C2.27087 12.0867 2.04748 11.5382 1.95698 10.9597C1.86647 10.3811 1.91142 9.78899 2.08814 9.23156C2.16702 9.05653 2.64972 8.52372 3.37473 8.34097C4.04737 8.17302 4.67394 8.37829 5.23678 8.95229L8.66874 12.4529L8.13177 13.0005C7.79414 13.3467 7.39254 13.6212 6.95021 13.8081C6.50787 13.995 6.03359 14.0905 5.5548 14.0893ZM18.3866 3.00321L23.0358 7.74767C23.7161 8.4381 24.0998 9.37567 24.1028 10.3545C24.1028 10.6479 23.8851 10.9117 23.5286 11.0623C22.996 11.2843 22.0899 11.2553 21.2923 10.4407L13.6491 2.64093C14.3507 2.11325 15.2145 1.85962 16.0838 1.9261C16.953 1.99257 17.7701 2.37474 18.3866 3.00321ZM23.6478 7.12155L18.9987 2.38031C18.216 1.58152 17.1724 1.10437 16.0669 1.03981C14.9614 0.975255 13.8713 1.3278 13.0043 2.03025C12.1373 1.3278 11.0471 0.975255 9.94163 1.03981C8.83613 1.10437 7.79257 1.58152 7.00987 2.38031L2.36073 7.12155C1.86441 7.62693 1.49137 8.24408 1.27164 8.92333C1.26281 8.94585 1.25524 8.96773 1.24829 8.98768C0.945143 9.96923 0.973655 11.0261 1.32927 11.9892C1.68488 12.9523 2.34702 13.7658 3.20973 14.2997C4.07243 14.8335 5.0858 15.0567 6.08766 14.9337C7.08951 14.8106 8.02191 14.3483 8.73563 13.6208L9.27323 13.0732L9.8102 13.6208C10.656 14.4833 11.8031 14.9678 12.9992 14.9678C14.1953 14.9678 15.3424 14.4833 16.1883 13.6208C16.3681 13.4372 16.5325 13.2385 16.6798 13.0269L17.2628 13.6208C17.6806 14.0491 18.1775 14.3887 18.7248 14.6199C19.272 14.8511 19.8588 14.9693 20.4512 14.9676C21.343 14.9675 22.2148 14.6976 22.9562 14.1923C23.6977 13.6869 24.2755 12.9687 24.6168 12.1285C24.9581 11.2882 25.0474 10.3636 24.8734 9.47163C24.6995 8.57962 24.2701 7.76023 23.6396 7.11705L23.6478 7.12155Z" fill="#111826"/>
</svg>
