<svg width="20" height="20" viewBox="0 0 20 20" fill="none" xmlns="http://www.w3.org/2000/svg">
<path d="M16.2337 2.35002L16.467 2.82502C16.5837 3.05835 16.8753 3.27502 17.1337 3.32502L17.4503 3.37502C18.4003 3.53335 18.6253 4.23335 17.942 4.92502L17.6503 5.21669C17.4587 5.41669 17.3503 5.80002 17.4087 6.06669L17.4503 6.24169C17.7087 7.39169 17.1003 7.83335 16.1003 7.23335L15.8837 7.10835C15.6253 6.95835 15.2087 6.95835 14.9503 7.10835L14.7337 7.23335C13.7253 7.84169 13.117 7.39169 13.3837 6.24169L13.4253 6.06669C13.4837 5.80002 13.3753 5.41669 13.1837 5.21669L12.892 4.91669C12.2087 4.22502 12.4337 3.52502 13.3837 3.36669L13.7003 3.31669C13.9503 3.27502 14.2503 3.05002 14.367 2.81669L14.6003 2.34169C15.0503 1.44169 15.7837 1.44169 16.2337 2.35002Z" fill="#06B6D4"/>
<path d="M17.9753 8.40835C17.6753 8.62502 16.8337 9.02502 15.6337 8.40835C15.5003 8.34169 15.3337 8.33335 15.2003 8.40835C14.7253 8.65002 14.292 8.75002 13.9503 8.75002C13.417 8.75002 13.042 8.54169 12.8587 8.40835C12.5503 8.18335 11.9003 7.54169 12.1253 6.18335C12.1503 6.04169 12.1087 5.90002 12.017 5.79169C11.442 5.13335 11.1253 4.25002 11.3503 3.55835C11.4337 3.28335 11.2587 2.91669 10.9753 2.91669H5.83366C3.33366 2.91669 1.66699 4.16669 1.66699 7.08335V12.9167C1.66699 15.8334 3.33366 17.0834 5.83366 17.0834H14.167C16.667 17.0834 18.3337 15.8334 18.3337 12.9167V8.55835C18.3337 8.40002 18.1087 8.31669 17.9753 8.40835ZM11.9503 10.075C11.4003 10.5167 10.7003 10.7334 10.0003 10.7334C9.30033 10.7334 8.59199 10.5167 8.05033 10.075L5.44199 7.99169C5.17533 7.77502 5.13366 7.37502 5.34199 7.10835C5.55866 6.84169 5.95033 6.79169 6.21699 7.00835L8.82533 9.09169C9.45866 9.60002 10.5337 9.60002 11.167 9.09169C11.4337 8.87502 11.8253 8.91669 12.042 9.19169C12.267 9.45835 12.2253 9.85835 11.9503 10.075Z" fill="#06B6D4"/>
</svg>
