<svg width="20" height="20" viewBox="0 0 20 20" fill="none" xmlns="http://www.w3.org/2000/svg">
<path d="M5.2816 12.3703C5.37927 11.5617 5.71094 11.1089 6.33596 10.6447C7.23024 10.0161 8.34734 10.3717 8.34734 10.3717V8.26222C8.61892 8.25528 8.8906 8.27138 9.15922 8.31033V11.025C9.15922 11.025 8.04246 10.6694 7.14817 11.2984C6.5235 11.7622 6.19115 12.2153 6.09382 13.024C6.09077 13.4631 6.17318 14.0371 6.55266 14.5334C6.45884 14.4853 6.3632 14.4305 6.26576 14.369C5.4298 13.8076 5.27753 12.9655 5.2816 12.3703ZM13.7717 4.3618C13.1565 3.68768 12.9239 3.00706 12.8398 2.52893H13.6137C13.6137 2.52893 13.4594 3.78259 14.5839 5.01545L14.5995 5.03202C14.2965 4.84138 14.0185 4.61634 13.7717 4.3618ZM17.4998 6.27301V8.9331C17.4998 8.9331 16.5122 8.89442 15.7814 8.7085C14.761 8.44847 14.1051 8.04965 14.1051 8.04965C14.1051 8.04965 13.652 7.76524 13.6154 7.74542V13.2385C13.6154 13.5444 13.5316 14.3082 13.2763 14.9453C12.9429 15.7787 12.4284 16.3257 12.3338 16.4375C12.3338 16.4375 11.7081 17.177 10.6043 17.6749C9.60924 18.1241 8.73564 18.1127 8.47451 18.1241C8.47451 18.1241 6.96437 18.1839 5.60547 17.3008C5.31162 17.1061 5.03732 16.8857 4.78613 16.6423L4.79292 16.6472C6.15215 17.5303 7.66196 17.4705 7.66196 17.4705C7.92343 17.4591 8.79703 17.4705 9.7917 17.0213C10.8945 16.5233 11.5213 15.7839 11.5213 15.7839C11.6149 15.672 12.1317 15.125 12.4637 14.2913C12.7184 13.6546 12.8028 12.8904 12.8028 12.5845V7.0921C12.8395 7.11225 13.2922 7.39665 13.2922 7.39665C13.2922 7.39665 13.9484 7.7958 14.9689 8.0555C15.7 8.24142 16.6872 8.2801 16.6872 8.2801V6.19565C17.025 6.27138 17.3129 6.29186 17.4998 6.27301Z" fill="#EE1D52"/>
<path d="M16.688 6.19565V8.27945C16.688 8.27945 15.7008 8.24077 14.9697 8.05485C13.9492 7.79482 13.293 7.396 13.293 7.396C13.293 7.396 12.8403 7.1116 12.8036 7.09145V12.5852C12.8036 12.891 12.7199 13.6552 12.4645 14.2919C12.1311 15.1257 11.6167 15.6727 11.5221 15.7845C11.5221 15.7845 10.896 16.524 9.7925 17.0219C8.79783 17.4711 7.92423 17.4597 7.66276 17.4711C7.66276 17.4711 6.15295 17.5309 4.79372 16.6478L4.78694 16.6429C4.64343 16.504 4.50835 16.3572 4.38235 16.2035C3.94861 15.6746 3.68273 15.0493 3.61592 14.8708C3.6158 14.8701 3.6158 14.8693 3.61592 14.8686C3.50842 14.5585 3.28256 13.8138 3.31342 13.0926C3.36802 11.8201 3.81567 11.039 3.93402 10.8433C4.24748 10.3097 4.65517 9.83233 5.13895 9.43235C5.56586 9.0872 6.04975 8.81258 6.57076 8.61976C7.134 8.39336 7.73713 8.27201 8.34781 8.26222V10.3717C8.34781 10.3717 7.23071 10.0174 6.33676 10.6447C5.71175 11.1089 5.38008 11.5617 5.28241 12.3703C5.27834 12.9655 5.43061 13.8076 6.26588 14.3693C6.36333 14.4311 6.45896 14.4859 6.55279 14.5338C6.69871 14.7235 6.87632 14.8887 7.07844 15.023C7.89439 15.5394 8.57807 15.5755 9.45235 15.2401C10.0353 15.0158 10.4742 14.5104 10.6776 13.9503C10.8055 13.6006 10.8038 13.2486 10.8038 12.8845V2.52893H12.8386C12.9227 3.00706 13.1553 3.68768 13.7705 4.3618C14.0173 4.61634 14.2952 4.84138 14.5983 5.03202C14.6878 5.12466 15.1457 5.58263 15.7334 5.86379C16.0373 6.00912 16.3576 6.12047 16.688 6.19565V6.19565Z" fill="black"/>
<path d="M2.80566 14.2231V14.2248L2.85615 14.3616C2.85035 14.3457 2.83159 14.2973 2.80566 14.2231Z" fill="#69C9D0"/>
<path d="M6.57051 8.61978C6.0495 8.8126 5.56561 9.08722 5.1387 9.43237C4.65477 9.83325 4.24718 10.3117 3.93411 10.8463C3.81576 11.0413 3.3681 11.823 3.3135 13.0955C3.28264 13.8168 3.5085 14.5614 3.61601 14.8715C3.61589 14.8723 3.61589 14.873 3.61601 14.8738C3.68383 15.0506 3.94869 15.676 4.38244 16.2064C4.50844 16.3602 4.64352 16.5069 4.78702 16.6459C4.32723 16.3411 3.91716 15.9726 3.57023 15.5525C3.14021 15.0282 2.87501 14.4093 2.80583 14.2266C2.80574 14.2253 2.80574 14.224 2.80583 14.2227V14.2205C2.69798 13.9107 2.47144 13.1657 2.50298 12.4435C2.55758 11.171 3.00523 10.3899 3.12359 10.1942C3.43657 9.65958 3.84417 9.18115 4.32818 8.78035C4.755 8.43508 5.23891 8.16045 5.75999 7.96776C6.08501 7.83851 6.42361 7.74316 6.76992 7.68335C7.29183 7.59603 7.82487 7.58847 8.34925 7.66093V8.26224C7.738 8.27183 7.13428 8.39318 6.57051 8.61978Z" fill="#69C9D0"/>
<path d="M12.8399 2.52897H10.8051V12.8849C10.8051 13.2489 10.8051 13.6 10.6789 13.9507C10.4734 14.5104 10.0363 15.0158 9.45365 15.2401C8.57904 15.5768 7.89535 15.5395 7.07974 15.023C6.87727 14.8894 6.69921 14.7246 6.55273 14.5354C7.24761 14.8907 7.86958 14.8845 8.64008 14.5881C9.22237 14.3638 9.66018 13.8584 9.86502 13.2984C9.99321 12.9486 9.99151 12.5966 9.99151 12.2329V1.875H12.8012C12.8012 1.875 12.7697 2.13243 12.8399 2.52897ZM16.6876 5.6194V6.19569C16.3578 6.12039 16.038 6.00904 15.7347 5.86383C15.147 5.58267 14.6891 5.1247 14.5996 5.03206C14.7035 5.09744 14.8113 5.15691 14.9225 5.21018C15.637 5.55212 16.3407 5.65418 16.6876 5.6194Z" fill="#69C9D0"/>
</svg>
