<svg width="20" height="20" viewBox="0 0 20 20" fill="none" xmlns="http://www.w3.org/2000/svg">
<path d="M8.45312 12.4148L12.5078 10.2602L8.45312 8.08752V12.4148Z" fill="white"/>
<path d="M17.3419 7.33519C17.3419 7.33519 17.1954 6.27593 16.7444 5.80648C16.1763 5.19259 15.5379 5.19259 15.2392 5.15648C13.1482 5 10.0029 5 10.0029 5H9.99707C9.99707 5 6.85182 5 4.74912 5.15648C4.45627 5.19259 3.81784 5.19259 3.24385 5.80648C2.79871 6.27593 2.65228 7.33519 2.65228 7.33519C2.65228 7.33519 2.5 8.58704 2.5 9.83287V11.0005C2.5 12.2463 2.65228 13.4921 2.65228 13.4921C2.65228 13.4921 2.79871 14.5514 3.24971 15.0208C3.81784 15.6347 4.56755 15.6167 4.90141 15.6769C6.10211 15.7972 9.99707 15.8333 9.99707 15.8333C9.99707 15.8333 13.1482 15.8273 15.245 15.6708C15.5379 15.6347 16.1763 15.6347 16.7503 15.0208C17.2013 14.5514 17.3477 13.4921 17.3477 13.4921C17.3477 13.4921 17.5 12.2463 17.5 11.0005V9.83287C17.4941 8.58704 17.3419 7.33519 17.3419 7.33519ZM8.4508 12.4148V8.0875L12.5039 10.2602L8.4508 12.4148Z" fill="url(#paint0_linear_1703_165)"/>
<defs>
<linearGradient id="paint0_linear_1703_165" x1="1921.75" y1="5.00002" x2="1921.75" y2="1955.59" gradientUnits="userSpaceOnUse">
<stop stop-color="#E52D27"/>
<stop offset="1" stop-color="#BF171D"/>
</linearGradient>
</defs>
</svg>
