<svg width="34" height="34" viewBox="0 0 34 34" fill="none" xmlns="http://www.w3.org/2000/svg">
<path fill-rule="evenodd" clip-rule="evenodd" d="M28.04 17.2614C28.04 16.4459 27.9668 15.6618 27.8309 14.9091H17V19.3575H23.1891C22.9225 20.795 22.1123 22.013 20.8943 22.8284V25.7139H24.6109C26.7855 23.7118 28.04 20.7637 28.04 17.2614Z" fill="#4285F4"/>
<path fill-rule="evenodd" clip-rule="evenodd" d="M16.9995 28.4998C20.1045 28.4998 22.7077 27.47 24.6104 25.7137L20.8938 22.8282C19.864 23.5182 18.5467 23.9259 16.9995 23.9259C14.0042 23.9259 11.469 21.903 10.5647 19.1848H6.72266V22.1644C8.61493 25.9228 12.504 28.4998 16.9995 28.4998Z" fill="#34A853"/>
<path fill-rule="evenodd" clip-rule="evenodd" d="M10.5652 19.1851C10.3352 18.4951 10.2045 17.758 10.2045 17.0001C10.2045 16.2421 10.3352 15.5051 10.5652 14.8151V11.8355H6.72318C5.94432 13.388 5.5 15.1444 5.5 17.0001C5.5 18.8557 5.94432 20.6121 6.72318 22.1646L10.5652 19.1851Z" fill="#FBBC05"/>
<path fill-rule="evenodd" clip-rule="evenodd" d="M16.9995 10.0739C18.6879 10.0739 20.2038 10.6541 21.3956 11.7936L24.694 8.49523C22.7024 6.63955 20.0992 5.5 16.9995 5.5C12.504 5.5 8.61493 8.07705 6.72266 11.8355L10.5647 14.815C11.469 12.0968 14.0042 10.0739 16.9995 10.0739Z" fill="#EA4335"/>
</svg>
